<?xml version="1.0" encoding="UTF-8"?>
<svg version="1.1" xmlns="http://www.w3.org/2000/svg" width="512" height="512">
<path d="M0 0 C0.81082031 0.05542969 1.62164062 0.11085938 2.45703125 0.16796875 C8.84904685 1.67681363 13.52281053 5.69862009 18.0234375 10.28515625 C18.80891464 11.06988564 18.80891464 11.06988564 19.61026001 11.87046814 C20.71123649 12.9737703 21.80855823 14.08073062 22.90234375 15.19116211 C24.54282884 16.85504824 26.19601856 18.50540864 27.8515625 20.15429688 C34.40309933 26.72360387 40.40972488 33.54342636 46.1875 40.8125 C47.21148007 42.02589481 48.24074903 43.23486392 49.27734375 44.4375 C63.55493912 61.23612634 76.01901179 80.26852919 86.16113281 99.83300781 C87.16046339 101.76035612 88.18417194 103.6731002 89.2109375 105.5859375 C99.0926793 124.3180507 106.34844592 144.2180923 111.1875 164.8125 C111.35330566 165.51020508 111.51911133 166.20791016 111.68994141 166.92675781 C116.00723063 185.50362206 116.48756493 203.81608158 116.1875 222.8125 C117.04988281 223.06773437 117.91226562 223.32296875 118.80078125 223.5859375 C169.18612103 241.83391523 205.45548642 301.85415676 226.91625977 347.32746887 C256.36400083 410.59121709 256.36400083 410.59121709 250.50390625 431.21875 C248.13818914 437.10850214 244.92300156 441.17119408 239.01269531 443.76806641 C236.40353034 444.68669019 233.78379431 445.4866473 231.125 446.25 C230.12331787 446.54366455 229.12163574 446.8373291 228.08959961 447.13989258 C154.82819343 467.96202738 73.02713774 468.05791407 5.12255859 430.92236328 C3.43589826 429.95497016 1.80533457 428.89105638 0.1875 427.8125 C-3.67300361 428.15608005 -6.53899218 429.56309152 -9.890625 431.4375 C-39.57110174 447.66821238 -70.19398546 456.42772377 -103.8125 459.8125 C-105.08351562 459.94398438 -106.35453125 460.07546875 -107.6640625 460.2109375 C-144.75046592 463.30844749 -216.97674213 464.97277851 -248.0703125 440.4296875 C-250.49547388 438.11507479 -251.87714685 436.58639189 -253.1875 433.5625 C-253.50460938 432.87671875 -253.82171875 432.1909375 -254.1484375 431.484375 C-256.17645046 423.32460522 -254.12063608 415.63138636 -252 407.6875 C-251.69304199 406.52532959 -251.38608398 405.36315918 -251.06982422 404.16577148 C-245.22198023 382.73363669 -237.49241238 361.80638015 -227.8125 341.8125 C-227.25127441 340.62285645 -227.25127441 340.62285645 -226.67871094 339.40917969 C-217.16229437 319.2420991 -205.71515485 300.25866761 -191.8125 282.8125 C-191.04550781 281.83410156 -190.27851563 280.85570312 -189.48828125 279.84765625 C-171.32144845 257.11465363 -148.51789822 235.22926226 -121.8125 222.8125 C-121.1525 222.8125 -120.4925 222.8125 -119.8125 222.8125 C-119.83606567 221.86503906 -119.83606567 221.86503906 -119.86010742 220.8984375 C-120.66637955 183.12271722 -113.08081713 147.91735567 -96.8125 113.8125 C-96.33925293 112.81041504 -96.33925293 112.81041504 -95.85644531 111.78808594 C-83.43490584 85.64492876 -67.34090514 61.99226837 -48.8125 39.8125 C-47.59433594 38.31396484 -47.59433594 38.31396484 -46.3515625 36.78515625 C-40.24687876 29.37448981 -33.67310115 22.44268222 -26.92098999 15.6234436 C-25.93918893 14.63174596 -24.95967721 13.6377761 -23.98257446 12.64144897 C-22.5930527 11.22800321 -21.19121623 9.82669687 -19.7890625 8.42578125 C-18.97518066 7.60891846 -18.16129883 6.79205566 -17.32275391 5.95043945 C-12.08899405 1.4929375 -6.79631744 -0.56725169 0 0 Z M-4.87890625 51.83203125 C-43.30077252 94.82363435 -77.13429488 147.48794905 -78.8125 206.8125 C-78.22162598 206.67674561 -77.63075195 206.54099121 -77.02197266 206.40112305 C-74.16349869 205.75326443 -71.30064648 205.12687461 -68.4375 204.5 C-67.51066406 204.28666016 -66.58382812 204.07332031 -65.62890625 203.85351562 C-45.73159034 199.55312799 -25.51595749 198.30742844 -5.20800781 198.42138672 C-1.81274284 198.43749885 1.58133247 198.42139612 4.9765625 198.40234375 C25.10040645 198.38215745 45.1644689 199.97740035 64.8125 204.5 C65.83988281 204.72494141 66.86726562 204.94988281 67.92578125 205.18164062 C70.34915899 205.71387779 72.76938742 206.25693418 75.1875 206.8125 C74.12622819 169.29654137 60.00099622 134.29156656 40.1875 102.8125 C39.53394531 101.77351563 38.88039063 100.73453125 38.20703125 99.6640625 C28.15510223 84.20274487 16.6045948 69.5708809 4.1328125 56.00390625 C2.1875 53.8125 2.1875 53.8125 0.5546875 51.52734375 C0.10351562 50.96144531 -0.34765625 50.39554688 -0.8125 49.8125 C-3.05567342 49.57951711 -3.05567342 49.57951711 -4.87890625 51.83203125 Z M-73.8125 247.8125 C-73.20919204 254.33005421 -71.16707625 260.12008965 -68.9375 266.25 C-68.54111328 267.3423999 -68.14472656 268.4347998 -67.73632812 269.56030273 C-56.92046479 298.75684544 -42.11905165 324.4982131 -22.8125 348.8125 C-22.07386719 349.74578125 -21.33523437 350.6790625 -20.57421875 351.640625 C-14.94427243 358.64055826 -8.9395961 365.25020829 -2.8125 371.8125 C16.73825921 364.01034087 35.36117237 328.28001259 45.1875 310.8125 C45.54763184 310.18649902 45.90776367 309.56049805 46.27880859 308.91552734 C62.95553956 279.80003622 62.95553956 279.80003622 70.1875 247.8125 C58.34894561 245.18569408 46.52261679 242.68921417 34.5 241.0625 C33.65421387 240.94737061 32.80842773 240.83224121 31.93701172 240.71362305 C-3.36965826 236.17242876 -39.35853161 238.94732715 -73.8125 247.8125 Z M-120.1875 270.125 C-120.81454834 270.57576904 -121.44159668 271.02653809 -122.08764648 271.4909668 C-127.86819085 275.72574699 -133.15602991 280.36842144 -138.30175781 285.35302734 C-139.85175017 286.85041815 -141.42152163 288.32511918 -142.9921875 289.80078125 C-151.63391221 298.04615618 -158.85758803 307.11991914 -165.8125 316.8125 C-166.2569043 317.42818848 -166.70130859 318.04387695 -167.15917969 318.67822266 C-182.9276764 340.75533008 -194.69999806 365.95553084 -203.9375 391.375 C-204.50537231 392.9360144 -204.50537231 392.9360144 -205.0847168 394.52856445 C-206.88567472 399.64113707 -208.31225541 404.40834256 -208.8125 409.8125 C-204.80644643 411.22499597 -200.9124311 412.2735103 -196.734375 413.03125 C-195.58243652 413.24040039 -194.43049805 413.44955078 -193.24365234 413.66503906 C-192.02887207 413.87870117 -190.8140918 414.09236328 -189.5625 414.3125 C-188.30775879 414.53389648 -187.05301758 414.75529297 -185.76025391 414.98339844 C-135.41628598 423.69217377 -82.14801968 422.22937554 -35.8125 398.8125 C-38.49287896 395.63836702 -41.17474334 392.49322608 -44.015625 389.4609375 C-60.07793226 372.31053846 -72.68786342 352.42839397 -83.8125 331.8125 C-84.27269531 330.96977539 -84.73289062 330.12705078 -85.20703125 329.25878906 C-96.29018299 308.89824976 -105.34969522 288.0907864 -111.8125 265.8125 C-115.1618787 265.8125 -117.5512785 268.22943623 -120.1875 270.125 Z M108.1875 265.8125 C107.96199463 266.52567383 107.73648926 267.23884766 107.50415039 267.97363281 C102.59612458 283.38154454 97.36802418 298.31366462 90.1875 312.8125 C89.67026367 313.85937988 89.15302734 314.90625977 88.62011719 315.98486328 C74.8738685 343.58456711 58.96284424 369.27337856 37.81665039 391.84228516 C35.71511701 394.09231926 33.90161389 396.24132916 32.1875 398.8125 C85.20869999 425.60816021 147.50490462 424.12058761 204.1875 410.8125 C205.43214451 407.27305825 204.93600147 405.19347864 203.73828125 401.68359375 C203.39104004 400.66217285 203.04379883 399.64075195 202.68603516 398.58837891 C202.09894775 396.93588135 202.09894775 396.93588135 201.5 395.25 C201.09571777 394.10192871 200.69143555 392.95385742 200.27490234 391.77099609 C188.7092313 359.6480101 172.98902975 327.5505904 150.1875 301.8125 C149.48625 301.00296875 148.785 300.1934375 148.0625 299.359375 C145.81147802 296.80285718 143.51394212 294.3005528 141.1875 291.8125 C140.31738281 290.87664062 139.44726562 289.94078125 138.55078125 288.9765625 C132.83800249 282.97730221 126.75114243 277.68132684 120.1875 272.625 C119.09211914 271.77748169 119.09211914 271.77748169 117.97460938 270.9128418 C117.28173828 270.39117432 116.58886719 269.86950684 115.875 269.33203125 C115.26011719 268.86901611 114.64523437 268.40600098 114.01171875 267.92895508 C112.07540484 266.74389572 110.40551329 266.24184225 108.1875 265.8125 Z " fill="#000000" transform="translate(257.8125,29.1875)"/>
</svg>
